<?xml version="1.0" standalone="no"?>
<!DOCTYPE svg PUBLIC "-//W3C//DTD SVG 20010904//EN"
 "http://www.w3.org/TR/2001/REC-SVG-20010904/DTD/svg10.dtd">
<svg version="1.0" xmlns="http://www.w3.org/2000/svg"
 width="420.000000pt" height="420.000000pt" viewBox="0 0 420.000000 420.000000"
 preserveAspectRatio="xMidYMid meet">

<g transform="translate(0.000000,420.000000) scale(0.100000,-0.100000)"
fill="#000000" stroke="none">
<path d="M1392 3752 c-29 -11 -68 -33 -85 -49 -18 -16 -55 -44 -84 -62 -61
-38 -104 -101 -128 -186 -9 -33 -27 -76 -39 -95 -12 -19 -26 -44 -30 -55 -11
-27 -28 -152 -27 -194 1 -18 -11 -59 -26 -89 -31 -63 -42 -184 -25 -283 6 -44
5 -63 -5 -84 -8 -14 -13 -36 -11 -48 2 -14 -7 -33 -24 -50 -42 -43 -37 -106
12 -162 10 -11 20 -39 23 -63 7 -55 23 -75 48 -62 13 7 28 5 53 -7 59 -28 78
6 91 162 4 44 12 87 18 95 7 9 40 32 75 52 44 27 62 33 62 23 0 -19 16 -19 23
-1 9 24 108 63 202 81 50 9 100 18 113 21 12 2 22 11 22 20 0 11 -7 14 -32 9
-57 -11 -65 5 -79 152 -12 123 -9 165 10 135 4 -6 20 -66 36 -133 19 -80 35
-123 45 -127 8 -3 19 -11 23 -19 12 -20 21 -16 36 18 10 24 11 47 4 100 -10
77 0 93 17 27 22 -85 32 -108 46 -108 8 0 14 -5 14 -11 0 -8 11 -9 32 -5 73
14 159 18 172 7 10 -9 38 -7 110 4 101 16 155 13 194 -12 22 -13 24 -13 29 5
5 19 7 19 48 -9 24 -16 46 -37 49 -47 3 -9 17 -59 30 -111 14 -51 28 -96 31
-99 3 -3 16 4 28 16 20 21 22 31 21 140 -2 137 -27 251 -61 266 -17 8 -19 17
-15 56 6 68 -12 141 -62 245 -36 75 -54 99 -102 140 -33 27 -71 62 -86 77 -35
36 -123 78 -166 78 -18 0 -49 7 -69 15 -19 8 -44 15 -54 15 -11 0 -19 5 -19
10 0 15 -55 88 -82 109 -13 10 -63 38 -113 61 -111 52 -206 63 -293 32z"/>
<path d="M2093 2615 c-41 -18 -81 -79 -87 -135 -4 -34 -4 -38 3 -15 25 96 76
138 158 132 59 -4 108 -33 143 -83 22 -33 40 -37 40 -9 0 24 -58 82 -104 104
-49 24 -107 26 -153 6z"/>
<path d="M2114 2575 c-63 -26 -82 -91 -44 -152 13 -23 29 -34 54 -39 36 -6 74
1 63 13 -8 8 32 43 48 43 19 0 26 43 14 78 -18 53 -82 80 -135 57z m3 -46 c14
-14 6 -39 -12 -39 -18 0 -28 17 -21 35 6 18 18 19 33 4z"/>
<path d="M1497 2516 c-77 -28 -143 -100 -152 -165 -6 -48 12 -46 34 4 30 68
58 103 99 123 94 44 172 16 226 -83 15 -26 16 -27 10 -5 -17 64 -47 100 -107
125 -44 18 -60 18 -110 1z"/>
<path d="M1463 2445 c-32 -32 -35 -40 -30 -76 5 -41 26 -73 60 -90 17 -10 93
-1 82 9 -9 9 36 51 50 46 19 -8 25 46 10 82 -17 42 -51 64 -98 64 -31 0 -46
-7 -74 -35z m47 -34 c0 -27 -19 -36 -37 -18 -18 18 -9 37 18 37 12 0 19 -7 19
-19z"/>
<path d="M1996 2173 c-6 -14 -5 -15 5 -6 7 7 10 15 7 18 -3 3 -9 -2 -12 -12z"/>
<path d="M3705 2089 c-22 -5 -44 -14 -50 -20 -12 -13 35 -3 80 17 35 15 25 16
-30 3z"/>
<path d="M2100 2064 c-41 -8 -84 -18 -95 -24 -39 -20 -91 -32 -175 -41 -172
-17 -200 -22 -206 -30 -10 -18 30 -59 83 -85 66 -33 175 -43 253 -24 70 17
166 83 201 139 27 42 38 83 22 80 -5 -1 -42 -8 -83 -15z m29 -50 c13 -12 -30
-24 -174 -49 -88 -14 -169 -29 -180 -32 -18 -4 -18 -4 2 11 12 9 73 28 135 42
62 14 127 30 143 34 27 7 63 4 74 -6z"/>
<path d="M2413 1873 c-50 -77 -145 -185 -197 -225 -107 -80 -322 -119 -468
-84 -134 31 -274 111 -408 230 -77 69 -146 111 -156 95 -3 -5 -1 -9 5 -9 5 0
46 -31 91 -70 95 -82 188 -149 249 -180 l43 -22 -4 -81 -4 -82 40 -1 c23 -1
86 -13 141 -27 55 -14 123 -29 150 -32 66 -9 196 10 245 35 l40 21 -5 -33 c-8
-46 -40 -104 -81 -147 -19 -20 -37 -47 -41 -61 -3 -13 -1 -81 5 -150 14 -148
15 -203 4 -196 -5 3 -35 69 -67 147 -32 78 -68 153 -80 167 -18 20 -37 27
-113 38 -102 15 -202 51 -262 95 -47 34 -49 48 -14 95 15 19 24 37 21 40 -10
10 -47 -16 -135 -96 -48 -44 -125 -103 -170 -132 -128 -81 -202 -138 -223
-172 -26 -42 -83 -222 -103 -321 -24 -126 -35 -225 -46 -435 -5 -107 -13 -214
-16 -237 l-5 -43 959 0 959 0 5 378 c4 276 2 390 -7 425 l-12 48 26 -24 c23
-22 77 -58 327 -220 33 -21 97 -69 144 -108 103 -86 219 -145 315 -160 60 -10
79 -10 127 5 77 22 134 69 174 141 51 92 68 184 60 324 -4 64 -8 181 -9 261
-2 162 -9 183 -62 206 -52 21 -65 18 -65 -15 0 -25 -4 -29 -37 -35 -21 -4
-111 -9 -200 -13 l-162 -6 -6 26 c-4 15 -11 25 -15 22 -8 -5 -153 100 -345
248 -166 129 -212 161 -280 192 -87 40 -182 68 -198 58 -7 -4 -21 -6 -32 -5
-18 2 -182 -43 -229 -63 -11 -5 12 29 51 74 61 72 122 161 110 161 -2 0 -18
-21 -34 -47z"/>
</g>
</svg>
